<mxfile host="65bd71144e">
    <diagram id="DWQPSogugxH5tQCF4_ep" name="第1頁">
        <mxGraphModel dx="931" dy="722" grid="1" gridSize="10" guides="1" tooltips="1" connect="1" arrows="1" fold="1" page="1" pageScale="1" pageWidth="827" pageHeight="1169" math="0" shadow="0">
            <root>
                <mxCell id="0"/>
                <mxCell id="1" parent="0"/>
                <mxCell id="12" value="opt" style="shape=umlFrame;tabWidth=110;tabHeight=30;tabPosition=left;html=1;boundedLbl=1;labelInHeader=1;width=140;height=30;" parent="1" vertex="1">
                    <mxGeometry x="139" y="180" width="550" height="1080" as="geometry"/>
                </mxCell>
                <mxCell id="13" value="[select=1]" style="text" parent="12" vertex="1">
                    <mxGeometry width="100" height="20" relative="1" as="geometry">
                        <mxPoint x="20" y="40" as="offset"/>
                    </mxGeometry>
                </mxCell>
                <mxCell id="14" value="[select=2]" style="line;strokeWidth=1;dashed=1;labelPosition=center;verticalLabelPosition=bottom;align=left;verticalAlign=top;spacingLeft=20;spacingTop=15;" parent="12" vertex="1">
                    <mxGeometry y="668.3294117647059" width="550" height="43.199999999999996" as="geometry"/>
                </mxCell>
                <mxCell id="15" value="[select=3]" style="line;strokeWidth=1;dashed=1;labelPosition=center;verticalLabelPosition=bottom;align=left;verticalAlign=top;spacingLeft=20;spacingTop=15;" parent="12" vertex="1">
                    <mxGeometry y="892.08" width="550" height="43.199999999999996" as="geometry"/>
                </mxCell>
                <mxCell id="17" value="" style="endArrow=none;startArrow=none;endFill=0;startFill=0;endSize=8;html=1;verticalAlign=bottom;dashed=1;labelBackgroundColor=none;dashPattern=10 10;" parent="12" edge="1">
                    <mxGeometry width="160" relative="1" as="geometry">
                        <mxPoint x="141" y="-16.33888048411498" as="sourcePoint"/>
                        <mxPoint x="141" y="1112.1784398342947" as="targetPoint"/>
                    </mxGeometry>
                </mxCell>
                <mxCell id="20" value="" style="endArrow=none;startArrow=none;endFill=0;startFill=0;endSize=8;html=1;verticalAlign=bottom;dashed=1;labelBackgroundColor=none;dashPattern=10 10;" parent="12" edge="1">
                    <mxGeometry width="160" relative="1" as="geometry">
                        <mxPoint x="420" y="-20.99546142208774" as="sourcePoint"/>
                        <mxPoint x="420" y="1107.5218588963219" as="targetPoint"/>
                    </mxGeometry>
                </mxCell>
                <mxCell id="22" value="inputOrder()" style="html=1;verticalAlign=bottom;endArrow=block;" parent="12" edge="1">
                    <mxGeometry width="80" relative="1" as="geometry">
                        <mxPoint x="141" y="65.35552193645992" as="sourcePoint"/>
                        <mxPoint x="421" y="65.35552193645992" as="targetPoint"/>
                    </mxGeometry>
                </mxCell>
                <mxCell id="23" value="newOrder" style="html=1;verticalAlign=bottom;endArrow=open;dashed=1;endSize=8;" parent="12" edge="1">
                    <mxGeometry relative="1" as="geometry">
                        <mxPoint x="421" y="125.71104387291984" as="sourcePoint"/>
                        <mxPoint x="141" y="125.71104387291984" as="targetPoint"/>
                    </mxGeometry>
                </mxCell>
                <mxCell id="24" value="getCustomer(customerID,customerName)" style="html=1;verticalAlign=bottom;endArrow=block;" parent="12" edge="1">
                    <mxGeometry width="80" relative="1" as="geometry">
                        <mxPoint x="141" y="194.33434190620275" as="sourcePoint"/>
                        <mxPoint x="421" y="194.33434190620275" as="targetPoint"/>
                    </mxGeometry>
                </mxCell>
                <mxCell id="25" value="customer" style="html=1;verticalAlign=bottom;endArrow=open;dashed=1;endSize=8;" parent="12" edge="1">
                    <mxGeometry relative="1" as="geometry">
                        <mxPoint x="421" y="259.68986384266265" as="sourcePoint"/>
                        <mxPoint x="141" y="259.68986384266265" as="targetPoint"/>
                    </mxGeometry>
                </mxCell>
                <mxCell id="26" value="addItem(bookID,quantity)" style="html=1;verticalAlign=bottom;endArrow=block;startArrow=none;exitX=0.222;exitY=0.23;exitDx=0;exitDy=0;exitPerimeter=0;" parent="12" source="42" edge="1">
                    <mxGeometry width="80" relative="1" as="geometry">
                        <mxPoint x="141" y="328.70529500756436" as="sourcePoint"/>
                        <mxPoint x="421" y="328.70529500756436" as="targetPoint"/>
                    </mxGeometry>
                </mxCell>
                <mxCell id="27" value="orderItem" style="html=1;verticalAlign=bottom;endArrow=open;dashed=1;endSize=8;" parent="12" edge="1">
                    <mxGeometry relative="1" as="geometry">
                        <mxPoint x="421" y="394.0608169440242" as="sourcePoint"/>
                        <mxPoint x="141" y="394.0608169440242" as="targetPoint"/>
                    </mxGeometry>
                </mxCell>
                <mxCell id="28" value="checkOrderItem(orderItem)" style="html=1;verticalAlign=bottom;endArrow=block;" parent="12" edge="1">
                    <mxGeometry width="80" relative="1" as="geometry">
                        <mxPoint x="141" y="452.48865355521946" as="sourcePoint"/>
                        <mxPoint x="421" y="452.48865355521946" as="targetPoint"/>
                    </mxGeometry>
                </mxCell>
                <mxCell id="29" value="itemMessage" style="html=1;verticalAlign=bottom;endArrow=open;dashed=1;endSize=8;" parent="12" edge="1">
                    <mxGeometry relative="1" as="geometry">
                        <mxPoint x="421" y="517.8441754916794" as="sourcePoint"/>
                        <mxPoint x="141" y="517.8441754916794" as="targetPoint"/>
                    </mxGeometry>
                </mxCell>
                <mxCell id="30" value="saveIrder(newOrder)" style="html=1;verticalAlign=bottom;endArrow=block;" parent="12" edge="1">
                    <mxGeometry width="80" relative="1" as="geometry">
                        <mxPoint x="141" y="583.1996974281392" as="sourcePoint"/>
                        <mxPoint x="421" y="583.1996974281392" as="targetPoint"/>
                    </mxGeometry>
                </mxCell>
                <mxCell id="31" value="saveSucces" style="html=1;verticalAlign=bottom;endArrow=open;dashed=1;endSize=8;" parent="12" edge="1">
                    <mxGeometry relative="1" as="geometry">
                        <mxPoint x="421" y="649.5552193645992" as="sourcePoint"/>
                        <mxPoint x="141" y="649.5552193645992" as="targetPoint"/>
                    </mxGeometry>
                </mxCell>
                <mxCell id="32" value="modifyOrder(order)" style="html=1;verticalAlign=bottom;endArrow=block;" parent="12" edge="1">
                    <mxGeometry width="80" relative="1" as="geometry">
                        <mxPoint x="141" y="713.9107413010589" as="sourcePoint"/>
                        <mxPoint x="421" y="713.9107413010589" as="targetPoint"/>
                    </mxGeometry>
                </mxCell>
                <mxCell id="33" value="order" style="html=1;verticalAlign=bottom;endArrow=open;dashed=1;endSize=8;" parent="12" edge="1">
                    <mxGeometry relative="1" as="geometry">
                        <mxPoint x="421" y="748.2662632375188" as="sourcePoint"/>
                        <mxPoint x="141" y="748.2662632375188" as="targetPoint"/>
                    </mxGeometry>
                </mxCell>
                <mxCell id="34" value="checkOrderItem(order)" style="html=1;verticalAlign=bottom;endArrow=block;" parent="12" edge="1">
                    <mxGeometry width="80" relative="1" as="geometry">
                        <mxPoint x="141" y="791.6217851739788" as="sourcePoint"/>
                        <mxPoint x="421" y="791.6217851739788" as="targetPoint"/>
                    </mxGeometry>
                </mxCell>
                <mxCell id="35" value="itemMessage" style="html=1;verticalAlign=bottom;endArrow=open;dashed=1;endSize=8;" parent="12" edge="1">
                    <mxGeometry relative="1" as="geometry">
                        <mxPoint x="421" y="830.0757686489004" as="sourcePoint"/>
                        <mxPoint x="141" y="830.0757686489004" as="targetPoint"/>
                    </mxGeometry>
                </mxCell>
                <mxCell id="38" value="saveOrder(order)" style="html=1;verticalAlign=bottom;endArrow=block;" parent="12" edge="1">
                    <mxGeometry width="80" relative="1" as="geometry">
                        <mxPoint x="141" y="862.3846153846155" as="sourcePoint"/>
                        <mxPoint x="421" y="862.3846153846155" as="targetPoint"/>
                    </mxGeometry>
                </mxCell>
                <mxCell id="39" value="saveSucess" style="html=1;verticalAlign=bottom;endArrow=open;dashed=1;endSize=8;" parent="12" edge="1">
                    <mxGeometry relative="1" as="geometry">
                        <mxPoint x="421" y="898.4705882352941" as="sourcePoint"/>
                        <mxPoint x="141" y="898.4705882352941" as="targetPoint"/>
                    </mxGeometry>
                </mxCell>
                <mxCell id="40" value="deleteOrder(order)" style="html=1;verticalAlign=bottom;endArrow=block;" parent="12" edge="1">
                    <mxGeometry width="80" relative="1" as="geometry">
                        <mxPoint x="141" y="970.0046153846156" as="sourcePoint"/>
                        <mxPoint x="421" y="970.0046153846156" as="targetPoint"/>
                    </mxGeometry>
                </mxCell>
                <mxCell id="41" value="deleteSucess" style="html=1;verticalAlign=bottom;endArrow=open;dashed=1;endSize=8;" parent="12" edge="1">
                    <mxGeometry relative="1" as="geometry">
                        <mxPoint x="421" y="1033.090588235294" as="sourcePoint"/>
                        <mxPoint x="141" y="1033.090588235294" as="targetPoint"/>
                    </mxGeometry>
                </mxCell>
                <mxCell id="42" value="loop" style="shape=umlFrame;tabWidth=110;tabHeight=30;tabPosition=left;html=1;boundedLbl=1;labelInHeader=1;width=140;height=30;" parent="12" vertex="1">
                    <mxGeometry x="40" y="300" width="460" height="110" as="geometry"/>
                </mxCell>
                <mxCell id="43" value="more item" style="text" parent="42" vertex="1">
                    <mxGeometry width="100" height="20" relative="1" as="geometry">
                        <mxPoint x="20" y="40" as="offset"/>
                    </mxGeometry>
                </mxCell>
                <mxCell id="16" value="" style="shape=umlActor;verticalLabelPosition=bottom;verticalAlign=top;html=1;" parent="1" vertex="1">
                    <mxGeometry x="260" y="90" width="30" height="60" as="geometry"/>
                </mxCell>
                <mxCell id="21" value="&lt;u&gt;:System&lt;/u&gt;" style="html=1;" parent="1" vertex="1">
                    <mxGeometry x="500" y="100" width="110" height="50" as="geometry"/>
                </mxCell>
            </root>
        </mxGraphModel>
    </diagram>
</mxfile>